<svg xmlns="http://www.w3.org/2000/svg" width="1160" height="620" viewBox="0 0 1160 620"><style>text{font-family:ui-sans-serif,system-ui,sans-serif;fill:#172033}.title{font-size:24px;font-weight:700}.subtitle{font-size:13px;fill:#526071}.panel-title{font-size:17px;font-weight:650}.plot{fill:#fbfdff;stroke:#b9c4d0}.grid{stroke:#dce3ea;stroke-width:1}.tick{font-size:11px;fill:#667587}.axis{font-size:12px;font-weight:600}.label{font-size:12px;font-weight:600}.frontier{fill:none;stroke:#111827;stroke-width:2;stroke-dasharray:5 4}</style><rect width="100%" height="100%" fill="#f4f7fa"/><text x="42" y="40" class="title">Fastvid codec frontier</text><text x="42" y="64" class="subtitle">four pinned 8-bit spatial/temporal cases; screening only; per-case median, then geometric mean</text><text x="94" y="96" class="panel-title">Encode frontier</text><rect x="94" y="120" width="455" height="390" class="plot"/><line x1="94.00" y1="120" x2="94.00" y2="510" class="grid"/><text x="94.00" y="534" class="tick" text-anchor="middle">13.6×</text><line x1="94" y1="510.00" x2="549" y2="510.00" class="grid"/><text x="84" y="514.00" class="tick" text-anchor="end">21.2</text><line x1="207.75" y1="120" x2="207.75" y2="510" class="grid"/><text x="207.75" y="534" class="tick" text-anchor="middle">19.1×</text><line x1="94" y1="412.50" x2="549" y2="412.50" class="grid"/><text x="84" y="416.50" class="tick" text-anchor="end">42.7</text><line x1="321.50" y1="120" x2="321.50" y2="510" class="grid"/><text x="321.50" y="534" class="tick" text-anchor="middle">24.6×</text><line x1="94" y1="315.00" x2="549" y2="315.00" class="grid"/><text x="84" y="319.00" class="tick" text-anchor="end">64.2</text><line x1="435.25" y1="120" x2="435.25" y2="510" class="grid"/><text x="435.25" y="534" class="tick" text-anchor="middle">30.1×</text><line x1="94" y1="217.50" x2="549" y2="217.50" class="grid"/><text x="84" y="221.50" class="tick" text-anchor="end">85.7</text><line x1="549.00" y1="120" x2="549.00" y2="510" class="grid"/><text x="549.00" y="534" class="tick" text-anchor="middle">35.6×</text><line x1="94" y1="120.00" x2="549" y2="120.00" class="grid"/><text x="84" y="124.00" class="tick" text-anchor="end">107.2</text><polyline points="112.00,172.12 319.76,475.78 507.28,496.85" class="frontier"/><circle cx="112.00" cy="172.12" r="7" fill="#2563eb"/><text x="122.00" y="159.12" class="label">Balanced</text><circle cx="319.76" cy="475.78" r="7" fill="#059669"/><text x="329.76" y="500.78" class="label">Practical compression</text><circle cx="507.28" cy="496.85" r="7" fill="#dc2626"/><text x="517.28" y="483.85" class="label">Maximum compression</text><text x="321.5" y="566" class="axis" text-anchor="middle">Compression ratio (higher is better)</text><text x="36" y="315.0" class="axis" text-anchor="middle" transform="rotate(-90 36 315.0)">Throughput (luma MP/s, higher is better)</text><text x="674" y="96" class="panel-title">Decode frontier</text><rect x="674" y="120" width="455" height="390" class="plot"/><line x1="674.00" y1="120" x2="674.00" y2="510" class="grid"/><text x="674.00" y="534" class="tick" text-anchor="middle">13.6×</text><line x1="674" y1="510.00" x2="1129" y2="510.00" class="grid"/><text x="664" y="514.00" class="tick" text-anchor="end">83.4</text><line x1="787.75" y1="120" x2="787.75" y2="510" class="grid"/><text x="787.75" y="534" class="tick" text-anchor="middle">19.1×</text><line x1="674" y1="412.50" x2="1129" y2="412.50" class="grid"/><text x="664" y="416.50" class="tick" text-anchor="end">99.7</text><line x1="901.50" y1="120" x2="901.50" y2="510" class="grid"/><text x="901.50" y="534" class="tick" text-anchor="middle">24.6×</text><line x1="674" y1="315.00" x2="1129" y2="315.00" class="grid"/><text x="664" y="319.00" class="tick" text-anchor="end">115.9</text><line x1="1015.25" y1="120" x2="1015.25" y2="510" class="grid"/><text x="1015.25" y="534" class="tick" text-anchor="middle">30.1×</text><line x1="674" y1="217.50" x2="1129" y2="217.50" class="grid"/><text x="664" y="221.50" class="tick" text-anchor="end">132.1</text><line x1="1129.00" y1="120" x2="1129.00" y2="510" class="grid"/><text x="1129.00" y="534" class="tick" text-anchor="middle">35.6×</text><line x1="674" y1="120.00" x2="1129" y2="120.00" class="grid"/><text x="664" y="124.00" class="tick" text-anchor="end">148.3</text><polyline points="899.76,215.58 1087.28,441.54" class="frontier"/><circle cx="692.00" cy="402.85" r="7" fill="#2563eb"/><text x="702.00" y="389.85" class="label">Balanced</text><circle cx="899.76" cy="215.58" r="7" fill="#059669"/><text x="909.76" y="240.58" class="label">Practical compression</text><circle cx="1087.28" cy="441.54" r="7" fill="#dc2626"/><text x="1097.28" y="428.54" class="label">Maximum compression</text><text x="901.5" y="566" class="axis" text-anchor="middle">Compression ratio (higher is better)</text><text x="616" y="315.0" class="axis" text-anchor="middle" transform="rotate(-90 616 315.0)">Throughput (luma MP/s, higher is better)</text><text x="42" y="602" class="subtitle">Dashed lines connect non-dominated points within each two-axis view. Quality/settings are identical per case. The explicit speed slot is omitted while vacant.</text></svg>